<?xml version="1.0" encoding="utf-8" standalone="no"?>
<!DOCTYPE svg PUBLIC "-//W3C//DTD SVG 1.1//EN"
  "http://www.w3.org/Graphics/SVG/1.1/DTD/svg11.dtd">
<svg height="345.6pt" version="1.1" viewBox="0 0 460.8 345.6" width="460.8pt" xmlns="http://www.w3.org/2000/svg" xmlns:xlink="http://www.w3.org/1999/xlink">
 <metadata>
  <rdf:RDF xmlns:cc="http://creativecommons.org/ns#" xmlns:dc="http://purl.org/dc/elements/1.1/" xmlns:rdf="http://www.w3.org/1999/02/22-rdf-syntax-ns#">
   <cc:Work>
    <dc:type rdf:resource="http://purl.org/dc/dcmitype/StillImage"/>
    <dc:date>2021-10-17T02:56:48.278597</dc:date>
    <dc:format>image/svg+xml</dc:format>
    <dc:creator>
     <cc:Agent>
      <dc:title>Matplotlib v3.4.3, https://matplotlib.org/</dc:title>
     </cc:Agent>
    </dc:creator>
   </cc:Work>
  </rdf:RDF>
 </metadata>
 <defs>
  <style type="text/css">*{stroke-linecap:butt;stroke-linejoin:round;}</style>
 </defs>
 <g id="figure_1">
  <g id="patch_1">
   <path d="M 0 345.6 
L 460.8 345.6 
L 460.8 0 
L 0 0 
z
" style="fill:#ffffff;"/>
  </g>
  <g id="axes_1">
   <g id="LineCollection_1">
    <path clip-path="url(#pa8063afc88)" d="M 43.795041 172.8 
L 230.4 32.846281 
" style="fill:none;stroke:#000000;"/>
    <path clip-path="url(#pa8063afc88)" d="M 43.795041 172.8 
L 230.4 102.82314 
" style="fill:none;stroke:#000000;"/>
    <path clip-path="url(#pa8063afc88)" d="M 43.795041 172.8 
L 230.4 242.77686 
" style="fill:none;stroke:#000000;"/>
    <path clip-path="url(#pa8063afc88)" d="M 43.795041 172.8 
L 230.4 312.753719 
" style="fill:none;stroke:#000000;"/>
    <path clip-path="url(#pa8063afc88)" d="M 230.4 32.846281 
L 137.097521 172.8 
" style="fill:none;stroke:#000000;"/>
    <path clip-path="url(#pa8063afc88)" d="M 230.4 32.846281 
L 323.702479 172.8 
" style="fill:none;stroke:#000000;"/>
    <path clip-path="url(#pa8063afc88)" d="M 230.4 32.846281 
L 417.004959 172.8 
" style="fill:none;stroke:#000000;"/>
    <path clip-path="url(#pa8063afc88)" d="M 230.4 102.82314 
L 137.097521 172.8 
" style="fill:none;stroke:#000000;"/>
    <path clip-path="url(#pa8063afc88)" d="M 230.4 102.82314 
L 323.702479 172.8 
" style="fill:none;stroke:#000000;"/>
    <path clip-path="url(#pa8063afc88)" d="M 230.4 102.82314 
L 417.004959 172.8 
" style="fill:none;stroke:#000000;"/>
    <path clip-path="url(#pa8063afc88)" d="M 230.4 242.77686 
L 137.097521 172.8 
" style="fill:none;stroke:#000000;"/>
    <path clip-path="url(#pa8063afc88)" d="M 230.4 242.77686 
L 323.702479 172.8 
" style="fill:none;stroke:#000000;"/>
    <path clip-path="url(#pa8063afc88)" d="M 230.4 242.77686 
L 417.004959 172.8 
" style="fill:none;stroke:#000000;"/>
    <path clip-path="url(#pa8063afc88)" d="M 230.4 312.753719 
L 137.097521 172.8 
" style="fill:none;stroke:#000000;"/>
    <path clip-path="url(#pa8063afc88)" d="M 230.4 312.753719 
L 323.702479 172.8 
" style="fill:none;stroke:#000000;"/>
    <path clip-path="url(#pa8063afc88)" d="M 230.4 312.753719 
L 417.004959 172.8 
" style="fill:none;stroke:#000000;"/>
   </g>
   <g id="LineCollection_2">
    <path clip-path="url(#pa8063afc88)" d="M 43.795041 172.8 
L 230.4 32.846281 
" style="fill:none;stroke:#0000ff;stroke-dasharray:11.1,4.8;stroke-dashoffset:0;stroke-width:3;"/>
    <path clip-path="url(#pa8063afc88)" d="M 323.702479 172.8 
L 230.4 32.846281 
" style="fill:none;stroke:#0000ff;stroke-dasharray:11.1,4.8;stroke-dashoffset:0;stroke-width:3;"/>
    <path clip-path="url(#pa8063afc88)" d="M 323.702479 172.8 
L 230.4 242.77686 
" style="fill:none;stroke:#0000ff;stroke-dasharray:11.1,4.8;stroke-dashoffset:0;stroke-width:3;"/>
    <path clip-path="url(#pa8063afc88)" d="M 417.004959 172.8 
L 230.4 242.77686 
" style="fill:none;stroke:#0000ff;stroke-dasharray:11.1,4.8;stroke-dashoffset:0;stroke-width:3;"/>
   </g>
   <g id="PathCollection_1">
    <defs>
     <path d="M 0 8.660254 
C 2.296726 8.660254 4.499694 7.747755 6.123724 6.123724 
C 7.747755 4.499694 8.660254 2.296726 8.660254 0 
C 8.660254 -2.296726 7.747755 -4.499694 6.123724 -6.123724 
C 4.499694 -7.747755 2.296726 -8.660254 0 -8.660254 
C -2.296726 -8.660254 -4.499694 -7.747755 -6.123724 -6.123724 
C -7.747755 -4.499694 -8.660254 -2.296726 -8.660254 0 
C -8.660254 2.296726 -7.747755 4.499694 -6.123724 6.123724 
C -4.499694 7.747755 -2.296726 8.660254 0 8.660254 
z
" id="maa66c4853a" style="stroke:#1f78b4;"/>
    </defs>
    <g clip-path="url(#pa8063afc88)">
     <use style="fill:#1f78b4;stroke:#1f78b4;" x="43.795041" xlink:href="#maa66c4853a" y="172.8"/>
     <use style="fill:#1f78b4;stroke:#1f78b4;" x="230.4" xlink:href="#maa66c4853a" y="32.846281"/>
     <use style="fill:#1f78b4;stroke:#1f78b4;" x="230.4" xlink:href="#maa66c4853a" y="102.82314"/>
     <use style="fill:#1f78b4;stroke:#1f78b4;" x="230.4" xlink:href="#maa66c4853a" y="242.77686"/>
     <use style="fill:#1f78b4;stroke:#1f78b4;" x="230.4" xlink:href="#maa66c4853a" y="312.753719"/>
     <use style="fill:#1f78b4;stroke:#1f78b4;" x="137.097521" xlink:href="#maa66c4853a" y="172.8"/>
     <use style="fill:#1f78b4;stroke:#1f78b4;" x="323.702479" xlink:href="#maa66c4853a" y="172.8"/>
     <use style="fill:#1f78b4;stroke:#1f78b4;" x="417.004959" xlink:href="#maa66c4853a" y="172.8"/>
    </g>
   </g>
   <g id="PathCollection_2">
    <defs>
     <path d="M 0 -8.660254 
L -1.944348 -2.676166 
L -8.236391 -2.676166 
L -3.146021 1.022204 
L -5.09037 7.006293 
L -0 3.307923 
L 5.09037 7.006293 
L 3.146021 1.022204 
L 8.236391 -2.676166 
L 1.944348 -2.676166 
z
" id="mac545310d3" style="stroke:#0000ff;"/>
    </defs>
    <g clip-path="url(#pa8063afc88)">
     <use style="fill:#0000ff;stroke:#0000ff;" x="43.795041" xlink:href="#mac545310d3" y="172.8"/>
     <use style="fill:#0000ff;stroke:#0000ff;" x="323.702479" xlink:href="#mac545310d3" y="172.8"/>
     <use style="fill:#0000ff;stroke:#0000ff;" x="417.004959" xlink:href="#mac545310d3" y="172.8"/>
     <use style="fill:#0000ff;stroke:#0000ff;" x="230.4" xlink:href="#mac545310d3" y="32.846281"/>
     <use style="fill:#0000ff;stroke:#0000ff;" x="230.4" xlink:href="#mac545310d3" y="242.77686"/>
    </g>
   </g>
   <g id="text_1">
    <g clip-path="url(#pa8063afc88)">
     <!-- 0 -->
     <g transform="translate(39.977541 176.11125)scale(0.12 -0.12)">
      <defs>
       <path d="M 2034 4250 
Q 1547 4250 1301 3770 
Q 1056 3291 1056 2328 
Q 1056 1369 1301 889 
Q 1547 409 2034 409 
Q 2525 409 2770 889 
Q 3016 1369 3016 2328 
Q 3016 3291 2770 3770 
Q 2525 4250 2034 4250 
z
M 2034 4750 
Q 2819 4750 3233 4129 
Q 3647 3509 3647 2328 
Q 3647 1150 3233 529 
Q 2819 -91 2034 -91 
Q 1250 -91 836 529 
Q 422 1150 422 2328 
Q 422 3509 836 4129 
Q 1250 4750 2034 4750 
z
" id="DejaVuSans-30" transform="scale(0.015625)"/>
      </defs>
      <use xlink:href="#DejaVuSans-30"/>
     </g>
    </g>
   </g>
   <g id="text_2">
    <g clip-path="url(#pa8063afc88)">
     <!-- 2 -->
     <g transform="translate(319.884979 176.11125)scale(0.12 -0.12)">
      <defs>
       <path d="M 1228 531 
L 3431 531 
L 3431 0 
L 469 0 
L 469 531 
Q 828 903 1448 1529 
Q 2069 2156 2228 2338 
Q 2531 2678 2651 2914 
Q 2772 3150 2772 3378 
Q 2772 3750 2511 3984 
Q 2250 4219 1831 4219 
Q 1534 4219 1204 4116 
Q 875 4013 500 3803 
L 500 4441 
Q 881 4594 1212 4672 
Q 1544 4750 1819 4750 
Q 2544 4750 2975 4387 
Q 3406 4025 3406 3419 
Q 3406 3131 3298 2873 
Q 3191 2616 2906 2266 
Q 2828 2175 2409 1742 
Q 1991 1309 1228 531 
z
" id="DejaVuSans-32" transform="scale(0.015625)"/>
      </defs>
      <use xlink:href="#DejaVuSans-32"/>
     </g>
    </g>
   </g>
   <g id="text_3">
    <g clip-path="url(#pa8063afc88)">
     <!-- 3 -->
     <g transform="translate(413.187459 176.11125)scale(0.12 -0.12)">
      <defs>
       <path d="M 2597 2516 
Q 3050 2419 3304 2112 
Q 3559 1806 3559 1356 
Q 3559 666 3084 287 
Q 2609 -91 1734 -91 
Q 1441 -91 1130 -33 
Q 819 25 488 141 
L 488 750 
Q 750 597 1062 519 
Q 1375 441 1716 441 
Q 2309 441 2620 675 
Q 2931 909 2931 1356 
Q 2931 1769 2642 2001 
Q 2353 2234 1838 2234 
L 1294 2234 
L 1294 2753 
L 1863 2753 
Q 2328 2753 2575 2939 
Q 2822 3125 2822 3475 
Q 2822 3834 2567 4026 
Q 2313 4219 1838 4219 
Q 1578 4219 1281 4162 
Q 984 4106 628 3988 
L 628 4550 
Q 988 4650 1302 4700 
Q 1616 4750 1894 4750 
Q 2613 4750 3031 4423 
Q 3450 4097 3450 3541 
Q 3450 3153 3228 2886 
Q 3006 2619 2597 2516 
z
" id="DejaVuSans-33" transform="scale(0.015625)"/>
      </defs>
      <use xlink:href="#DejaVuSans-33"/>
     </g>
    </g>
   </g>
   <g id="text_4">
    <g clip-path="url(#pa8063afc88)">
     <!-- 4 -->
     <g transform="translate(226.5825 36.157531)scale(0.12 -0.12)">
      <defs>
       <path d="M 2419 4116 
L 825 1625 
L 2419 1625 
L 2419 4116 
z
M 2253 4666 
L 3047 4666 
L 3047 1625 
L 3713 1625 
L 3713 1100 
L 3047 1100 
L 3047 0 
L 2419 0 
L 2419 1100 
L 313 1100 
L 313 1709 
L 2253 4666 
z
" id="DejaVuSans-34" transform="scale(0.015625)"/>
      </defs>
      <use xlink:href="#DejaVuSans-34"/>
     </g>
    </g>
   </g>
   <g id="text_5">
    <g clip-path="url(#pa8063afc88)">
     <!-- 6 -->
     <g transform="translate(226.5825 246.08811)scale(0.12 -0.12)">
      <defs>
       <path d="M 2113 2584 
Q 1688 2584 1439 2293 
Q 1191 2003 1191 1497 
Q 1191 994 1439 701 
Q 1688 409 2113 409 
Q 2538 409 2786 701 
Q 3034 994 3034 1497 
Q 3034 2003 2786 2293 
Q 2538 2584 2113 2584 
z
M 3366 4563 
L 3366 3988 
Q 3128 4100 2886 4159 
Q 2644 4219 2406 4219 
Q 1781 4219 1451 3797 
Q 1122 3375 1075 2522 
Q 1259 2794 1537 2939 
Q 1816 3084 2150 3084 
Q 2853 3084 3261 2657 
Q 3669 2231 3669 1497 
Q 3669 778 3244 343 
Q 2819 -91 2113 -91 
Q 1303 -91 875 529 
Q 447 1150 447 2328 
Q 447 3434 972 4092 
Q 1497 4750 2381 4750 
Q 2619 4750 2861 4703 
Q 3103 4656 3366 4563 
z
" id="DejaVuSans-36" transform="scale(0.015625)"/>
      </defs>
      <use xlink:href="#DejaVuSans-36"/>
     </g>
    </g>
   </g>
  </g>
 </g>
 <defs>
  <clipPath id="pa8063afc88">
   <rect height="338.688" width="451.584" x="4.608" y="3.456"/>
  </clipPath>
 </defs>
</svg>
