<svg height="900" width="600" xmlns="http://www.w3.org/2000/svg" viewBox="0 0 600 900"><polyline points="100,50 50,275 100,500 " fill="none" stroke="black" stroke-width="1"/><polyline points="100,50 250,50 " fill="none" stroke="black" stroke-width="1"/><polyline points="100,50 250,250 " fill="none" stroke="black" stroke-width="1"/><polyline points="100,50 250,150 " fill="none" stroke="black" stroke-width="1"/><polyline points="100,50 250,350 " fill="none" stroke="black" stroke-width="1"/><polyline points="100,500 250,500 " fill="none" stroke="black" stroke-width="1"/><polyline points="100,500 250,700 " fill="none" stroke="black" stroke-width="1"/><polyline points="100,500 250,600 " fill="none" stroke="black" stroke-width="1"/><polyline points="100,500 250,800 " fill="none" stroke="black" stroke-width="1"/><polyline points="400,50 350,275 400,500 " fill="none" stroke="black" stroke-width="1"/><polyline points="400,50 550,50 " fill="none" stroke="black" stroke-width="1"/><polyline points="400,50 550,250 " fill="none" stroke="black" stroke-width="1"/><polyline points="400,50 550,150 " fill="none" stroke="black" stroke-width="1"/><polyline points="400,50 550,350 " fill="none" stroke="black" stroke-width="1"/><polyline points="400,500 550,500 " fill="none" stroke="black" stroke-width="1"/><polyline points="400,500 550,700 " fill="none" stroke="black" stroke-width="1"/><polyline points="400,500 550,600 " fill="none" stroke="black" stroke-width="1"/><polyline points="400,500 550,800 " fill="none" stroke="black" stroke-width="1"/><polyline points="250,50 400,100 550,50 " fill="none" stroke="black" stroke-width="1"/><polyline points="250,500 400,550 550,500 " fill="none" stroke="black" stroke-width="1"/><polyline points="100,250 250,50 " fill="none" stroke="black" stroke-width="1"/><polyline points="100,250 50,475 100,700 " fill="none" stroke="black" stroke-width="1"/><polyline points="100,250 250,250 " fill="none" stroke="black" stroke-width="1"/><polyline points="100,250 250,150 " fill="none" stroke="black" stroke-width="1"/><polyline points="100,250 250,350 " fill="none" stroke="black" stroke-width="1"/><polyline points="100,700 250,500 " fill="none" stroke="black" stroke-width="1"/><polyline points="100,700 250,700 " fill="none" stroke="black" stroke-width="1"/><polyline points="100,700 250,600 " fill="none" stroke="black" stroke-width="1"/><polyline points="100,700 250,800 " fill="none" stroke="black" stroke-width="1"/><polyline points="400,250 550,50 " fill="none" stroke="black" stroke-width="1"/><polyline points="400,250 350,475 400,700 " fill="none" stroke="black" stroke-width="1"/><polyline points="400,250 550,250 " fill="none" stroke="black" stroke-width="1"/><polyline points="400,250 550,150 " fill="none" stroke="black" stroke-width="1"/><polyline points="400,250 550,350 " fill="none" stroke="black" stroke-width="1"/><polyline points="400,700 550,500 " fill="none" stroke="black" stroke-width="1"/><polyline points="400,700 550,700 " fill="none" stroke="black" stroke-width="1"/><polyline points="400,700 550,600 " fill="none" stroke="black" stroke-width="1"/><polyline points="400,700 550,800 " fill="none" stroke="black" stroke-width="1"/><polyline points="250,250 400,300 550,250 " fill="none" stroke="black" stroke-width="1"/><polyline points="250,700 400,750 550,700 " fill="none" stroke="black" stroke-width="1"/><polyline points="100,150 250,50 " fill="none" stroke="black" stroke-width="1"/><polyline points="100,150 250,250 " fill="none" stroke="black" stroke-width="1"/><polyline points="100,150 50,375 100,600 " fill="none" stroke="black" stroke-width="1"/><polyline points="100,150 250,150 " fill="none" stroke="black" stroke-width="1"/><polyline points="100,150 250,350 " fill="none" stroke="black" stroke-width="1"/><polyline points="100,600 250,500 " fill="none" stroke="black" stroke-width="1"/><polyline points="100,600 250,700 " fill="none" stroke="black" stroke-width="1"/><polyline points="100,600 250,600 " fill="none" stroke="black" stroke-width="1"/><polyline points="100,600 250,800 " fill="none" stroke="black" stroke-width="1"/><polyline points="400,150 550,50 " fill="none" stroke="black" stroke-width="1"/><polyline points="400,150 550,250 " fill="none" stroke="black" stroke-width="1"/><polyline points="400,150 350,375 400,600 " fill="none" stroke="black" stroke-width="1"/><polyline points="400,150 550,150 " fill="none" stroke="black" stroke-width="1"/><polyline points="400,150 550,350 " fill="none" stroke="black" stroke-width="1"/><polyline points="400,600 550,500 " fill="none" stroke="black" stroke-width="1"/><polyline points="400,600 550,700 " fill="none" stroke="black" stroke-width="1"/><polyline points="400,600 550,600 " fill="none" stroke="black" stroke-width="1"/><polyline points="400,600 550,800 " fill="none" stroke="black" stroke-width="1"/><polyline points="250,150 400,200 550,150 " fill="none" stroke="black" stroke-width="1"/><polyline points="250,600 400,650 550,600 " fill="none" stroke="black" stroke-width="1"/><polyline points="100,350 250,50 " fill="none" stroke="black" stroke-width="1"/><polyline points="100,350 250,250 " fill="none" stroke="black" stroke-width="1"/><polyline points="100,350 250,150 " fill="none" stroke="black" stroke-width="1"/><polyline points="100,350 50,575 100,800 " fill="none" stroke="black" stroke-width="1"/><polyline points="100,350 250,350 " fill="none" stroke="black" stroke-width="1"/><polyline points="100,800 250,500 " fill="none" stroke="black" stroke-width="1"/><polyline points="100,800 250,700 " fill="none" stroke="black" stroke-width="1"/><polyline points="100,800 250,600 " fill="none" stroke="black" stroke-width="1"/><polyline points="100,800 250,800 " fill="none" stroke="black" stroke-width="1"/><polyline points="400,350 550,50 " fill="none" stroke="black" stroke-width="1"/><polyline points="400,350 550,250 " fill="none" stroke="black" stroke-width="1"/><polyline points="400,350 550,150 " fill="none" stroke="black" stroke-width="1"/><polyline points="400,350 350,575 400,800 " fill="none" stroke="black" stroke-width="1"/><polyline points="400,350 550,350 " fill="none" stroke="black" stroke-width="1"/><polyline points="400,800 550,500 " fill="none" stroke="black" stroke-width="1"/><polyline points="400,800 550,700 " fill="none" stroke="black" stroke-width="1"/><polyline points="400,800 550,600 " fill="none" stroke="black" stroke-width="1"/><polyline points="400,800 550,800 " fill="none" stroke="black" stroke-width="1"/><polyline points="250,350 400,400 550,350 " fill="none" stroke="black" stroke-width="1"/><polyline points="250,800 400,850 550,800 " fill="none" stroke="black" stroke-width="1"/><polyline points="100,50 250,50 " fill="none" stroke="red" stroke-width="3"/><polyline points="100,50 250,350 " fill="none" stroke="red" stroke-width="3"/><polyline points="250,250 400,300 550,250 " fill="none" stroke="red" stroke-width="3"/><polyline points="100,350 250,50 " fill="none" stroke="red" stroke-width="3"/><polyline points="100,350 250,250 " fill="none" stroke="red" stroke-width="3"/><polyline points="400,350 550,250 " fill="none" stroke="red" stroke-width="3"/><polyline points="400,350 550,350 " fill="none" stroke="red" stroke-width="3"/><polyline points="250,350 400,400 550,350 " fill="none" stroke="red" stroke-width="3"/><circle id="node_0_0" r="25" cx="100" cy="50" fill="none" stroke="black" /><circle id="node_16_0" r="25" cx="100" cy="500" fill="none" stroke="black" /><circle id="node_8_0" r="25" cx="400" cy="50" fill="none" stroke="black" /><circle id="node_24_0" r="25" cx="400" cy="500" fill="none" stroke="black" /><circle id="node_4_0" r="25" cx="250" cy="50" fill="none" stroke="black" /><circle id="node_20_0" r="25" cx="250" cy="500" fill="none" stroke="black" /><circle id="node_12_0" r="25" cx="550" cy="50" fill="none" stroke="black" /><circle id="node_28_0" r="25" cx="550" cy="500" fill="none" stroke="black" /><circle id="node_2_0" r="25" cx="100" cy="250" fill="none" stroke="black" /><circle id="node_18_0" r="25" cx="100" cy="700" fill="none" stroke="black" /><circle id="node_10_0" r="25" cx="400" cy="250" fill="none" stroke="black" /><circle id="node_26_0" r="25" cx="400" cy="700" fill="none" stroke="black" /><circle id="node_6_0" r="25" cx="250" cy="250" fill="none" stroke="black" /><circle id="node_22_0" r="25" cx="250" cy="700" fill="none" stroke="black" /><circle id="node_14_0" r="25" cx="550" cy="250" fill="none" stroke="black" /><circle id="node_30_0" r="25" cx="550" cy="700" fill="none" stroke="black" /><circle id="node_1_0" r="25" cx="100" cy="150" fill="none" stroke="black" /><circle id="node_17_0" r="25" cx="100" cy="600" fill="none" stroke="black" /><circle id="node_9_0" r="25" cx="400" cy="150" fill="none" stroke="black" /><circle id="node_25_0" r="25" cx="400" cy="600" fill="none" stroke="black" /><circle id="node_5_0" r="25" cx="250" cy="150" fill="none" stroke="black" /><circle id="node_21_0" r="25" cx="250" cy="600" fill="none" stroke="black" /><circle id="node_13_0" r="25" cx="550" cy="150" fill="none" stroke="black" /><circle id="node_29_0" r="25" cx="550" cy="600" fill="none" stroke="black" /><circle id="node_3_0" r="25" cx="100" cy="350" fill="none" stroke="black" /><circle id="node_19_0" r="25" cx="100" cy="800" fill="none" stroke="black" /><circle id="node_11_0" r="25" cx="400" cy="350" fill="none" stroke="black" /><circle id="node_27_0" r="25" cx="400" cy="800" fill="none" stroke="black" /><circle id="node_7_0" r="25" cx="250" cy="350" fill="none" stroke="black" /><circle id="node_23_0" r="25" cx="250" cy="800" fill="none" stroke="black" /><circle id="node_15_0" r="25" cx="550" cy="350" fill="none" stroke="black" /><circle id="node_31_0" r="25" cx="550" cy="800" fill="none" stroke="black" /><circle id="node_0_3" r="25" cx="100" cy="50" fill="Cyan" stroke="black" /><circle id="node_14_3" r="25" cx="550" cy="250" fill="yellow" stroke="black" /><circle id="node_3_3" r="25" cx="100" cy="350" fill="green" stroke="black" /><circle id="node_15_3" r="25" cx="550" cy="350" fill="Navy" stroke="black" /><circle id="node_4_3" r="25" cx="250" cy="50" fill="purple" stroke="black" /><circle id="node_11_3" r="25" cx="400" cy="350" fill="magenta" stroke="black" /><circle id="node_6_3" r="25" cx="250" cy="250" fill="blue" stroke="black" /><circle id="node_7_3" r="25" cx="250" cy="350" fill="Aquamarine" stroke="black" /></svg>