<svg height="1050" width="1050" xmlns="http://www.w3.org/2000/svg" viewBox="0 0 1050 1050"><polyline points="50,50 50,150 " fill="none" stroke="black" stroke-width="1"/><polyline points="50,50 150,50 " fill="none" stroke="black" stroke-width="1"/><polyline points="50,50 150,150 " fill="none" stroke="black" stroke-width="1"/><polyline points="450,650 450,750 " fill="none" stroke="black" stroke-width="1"/><polyline points="450,650 550,650 " fill="none" stroke="black" stroke-width="1"/><polyline points="450,650 350,750 " fill="none" stroke="black" stroke-width="1"/><polyline points="450,650 550,750 " fill="none" stroke="black" stroke-width="1"/><polyline points="250,350 250,450 " fill="none" stroke="black" stroke-width="1"/><polyline points="250,350 350,350 " fill="none" stroke="black" stroke-width="1"/><polyline points="250,350 150,450 " fill="none" stroke="black" stroke-width="1"/><polyline points="250,350 350,450 " fill="none" stroke="black" stroke-width="1"/><polyline points="650,950 750,950 " fill="none" stroke="black" stroke-width="1"/><polyline points="650,150 650,250 " fill="none" stroke="black" stroke-width="1"/><polyline points="650,150 750,150 " fill="none" stroke="black" stroke-width="1"/><polyline points="650,150 550,250 " fill="none" stroke="black" stroke-width="1"/><polyline points="650,150 750,250 " fill="none" stroke="black" stroke-width="1"/><polyline points="50,850 50,950 " fill="none" stroke="black" stroke-width="1"/><polyline points="50,850 150,850 " fill="none" stroke="black" stroke-width="1"/><polyline points="50,850 150,950 " fill="none" stroke="black" stroke-width="1"/><polyline points="850,450 850,550 " fill="none" stroke="black" stroke-width="1"/><polyline points="850,450 950,450 " fill="none" stroke="black" stroke-width="1"/><polyline points="850,450 750,550 " fill="none" stroke="black" stroke-width="1"/><polyline points="850,450 950,550 " fill="none" stroke="black" stroke-width="1"/><polyline points="850,50 850,150 " fill="none" stroke="black" stroke-width="1"/><polyline points="850,50 750,150 " fill="none" stroke="black" stroke-width="1"/><polyline points="850,50 950,50 " fill="none" stroke="black" stroke-width="1"/><polyline points="850,50 950,150 " fill="none" stroke="black" stroke-width="1"/><polyline points="250,750 250,850 " fill="none" stroke="black" stroke-width="1"/><polyline points="250,750 150,850 " fill="none" stroke="black" stroke-width="1"/><polyline points="250,750 350,750 " fill="none" stroke="black" stroke-width="1"/><polyline points="250,750 350,850 " fill="none" stroke="black" stroke-width="1"/><polyline points="50,450 50,550 " fill="none" stroke="black" stroke-width="1"/><polyline points="50,450 150,450 " fill="none" stroke="black" stroke-width="1"/><polyline points="50,450 150,550 " fill="none" stroke="black" stroke-width="1"/><polyline points="450,250 450,350 " fill="none" stroke="black" stroke-width="1"/><polyline points="450,250 350,350 " fill="none" stroke="black" stroke-width="1"/><polyline points="450,250 550,250 " fill="none" stroke="black" stroke-width="1"/><polyline points="450,250 550,350 " fill="none" stroke="black" stroke-width="1"/><polyline points="850,850 850,950 " fill="none" stroke="black" stroke-width="1"/><polyline points="850,850 750,950 " fill="none" stroke="black" stroke-width="1"/><polyline points="850,850 950,850 " fill="none" stroke="black" stroke-width="1"/><polyline points="850,850 950,950 " fill="none" stroke="black" stroke-width="1"/><polyline points="650,550 650,650 " fill="none" stroke="black" stroke-width="1"/><polyline points="650,550 550,650 " fill="none" stroke="black" stroke-width="1"/><polyline points="650,550 750,550 " fill="none" stroke="black" stroke-width="1"/><polyline points="650,550 750,650 " fill="none" stroke="black" stroke-width="1"/><polyline points="450,50 450,150 " fill="none" stroke="black" stroke-width="1"/><polyline points="450,50 550,50 " fill="none" stroke="black" stroke-width="1"/><polyline points="450,50 350,150 " fill="none" stroke="black" stroke-width="1"/><polyline points="450,50 550,150 " fill="none" stroke="black" stroke-width="1"/><polyline points="850,650 850,750 " fill="none" stroke="black" stroke-width="1"/><polyline points="850,650 950,650 " fill="none" stroke="black" stroke-width="1"/><polyline points="850,650 750,750 " fill="none" stroke="black" stroke-width="1"/><polyline points="850,650 950,750 " fill="none" stroke="black" stroke-width="1"/><polyline points="650,350 650,450 " fill="none" stroke="black" stroke-width="1"/><polyline points="650,350 750,350 " fill="none" stroke="black" stroke-width="1"/><polyline points="650,350 550,450 " fill="none" stroke="black" stroke-width="1"/><polyline points="650,350 750,450 " fill="none" stroke="black" stroke-width="1"/><polyline points="50,250 50,350 " fill="none" stroke="black" stroke-width="1"/><polyline points="50,250 150,250 " fill="none" stroke="black" stroke-width="1"/><polyline points="50,250 150,350 " fill="none" stroke="black" stroke-width="1"/><polyline points="450,850 450,950 " fill="none" stroke="black" stroke-width="1"/><polyline points="450,850 550,850 " fill="none" stroke="black" stroke-width="1"/><polyline points="450,850 350,950 " fill="none" stroke="black" stroke-width="1"/><polyline points="450,850 550,950 " fill="none" stroke="black" stroke-width="1"/><polyline points="250,550 250,650 " fill="none" stroke="black" stroke-width="1"/><polyline points="250,550 350,550 " fill="none" stroke="black" stroke-width="1"/><polyline points="250,550 150,650 " fill="none" stroke="black" stroke-width="1"/><polyline points="250,550 350,650 " fill="none" stroke="black" stroke-width="1"/><polyline points="250,150 250,250 " fill="none" stroke="black" stroke-width="1"/><polyline points="250,150 150,250 " fill="none" stroke="black" stroke-width="1"/><polyline points="250,150 350,150 " fill="none" stroke="black" stroke-width="1"/><polyline points="250,150 350,250 " fill="none" stroke="black" stroke-width="1"/><polyline points="650,750 650,850 " fill="none" stroke="black" stroke-width="1"/><polyline points="650,750 550,850 " fill="none" stroke="black" stroke-width="1"/><polyline points="650,750 750,750 " fill="none" stroke="black" stroke-width="1"/><polyline points="650,750 750,850 " fill="none" stroke="black" stroke-width="1"/><polyline points="450,450 450,550 " fill="none" stroke="black" stroke-width="1"/><polyline points="450,450 350,550 " fill="none" stroke="black" stroke-width="1"/><polyline points="450,450 550,450 " fill="none" stroke="black" stroke-width="1"/><polyline points="450,450 550,550 " fill="none" stroke="black" stroke-width="1"/><polyline points="850,250 850,350 " fill="none" stroke="black" stroke-width="1"/><polyline points="850,250 750,350 " fill="none" stroke="black" stroke-width="1"/><polyline points="850,250 950,250 " fill="none" stroke="black" stroke-width="1"/><polyline points="850,250 950,350 " fill="none" stroke="black" stroke-width="1"/><polyline points="250,950 350,950 " fill="none" stroke="black" stroke-width="1"/><polyline points="50,650 50,750 " fill="none" stroke="black" stroke-width="1"/><polyline points="50,650 150,650 " fill="none" stroke="black" stroke-width="1"/><polyline points="50,650 150,750 " fill="none" stroke="black" stroke-width="1"/><polyline points="250,50 250,150 " fill="none" stroke="black" stroke-width="1"/><polyline points="250,50 350,150 " fill="none" stroke="black" stroke-width="1"/><polyline points="250,50 350,50 " fill="none" stroke="black" stroke-width="1"/><polyline points="250,50 150,150 " fill="none" stroke="black" stroke-width="1"/><polyline points="650,650 650,750 " fill="none" stroke="black" stroke-width="1"/><polyline points="650,650 750,750 " fill="none" stroke="black" stroke-width="1"/><polyline points="650,650 750,650 " fill="none" stroke="black" stroke-width="1"/><polyline points="650,650 550,750 " fill="none" stroke="black" stroke-width="1"/><polyline points="450,350 450,450 " fill="none" stroke="black" stroke-width="1"/><polyline points="450,350 550,450 " fill="none" stroke="black" stroke-width="1"/><polyline points="450,350 550,350 " fill="none" stroke="black" stroke-width="1"/><polyline points="450,350 350,450 " fill="none" stroke="black" stroke-width="1"/><polyline points="850,950 950,950 " fill="none" stroke="black" stroke-width="1"/><polyline points="850,150 850,250 " fill="none" stroke="black" stroke-width="1"/><polyline points="850,150 950,250 " fill="none" stroke="black" stroke-width="1"/><polyline points="850,150 950,150 " fill="none" stroke="black" stroke-width="1"/><polyline points="850,150 750,250 " fill="none" stroke="black" stroke-width="1"/><polyline points="250,850 250,950 " fill="none" stroke="black" stroke-width="1"/><polyline points="250,850 350,950 " fill="none" stroke="black" stroke-width="1"/><polyline points="250,850 350,850 " fill="none" stroke="black" stroke-width="1"/><polyline points="250,850 150,950 " fill="none" stroke="black" stroke-width="1"/><polyline points="50,550 50,650 " fill="none" stroke="black" stroke-width="1"/><polyline points="50,550 150,650 " fill="none" stroke="black" stroke-width="1"/><polyline points="50,550 150,550 " fill="none" stroke="black" stroke-width="1"/><polyline points="50,150 50,250 " fill="none" stroke="black" stroke-width="1"/><polyline points="50,150 150,250 " fill="none" stroke="black" stroke-width="1"/><polyline points="50,150 150,150 " fill="none" stroke="black" stroke-width="1"/><polyline points="450,750 450,850 " fill="none" stroke="black" stroke-width="1"/><polyline points="450,750 550,850 " fill="none" stroke="black" stroke-width="1"/><polyline points="450,750 350,850 " fill="none" stroke="black" stroke-width="1"/><polyline points="450,750 550,750 " fill="none" stroke="black" stroke-width="1"/><polyline points="250,450 250,550 " fill="none" stroke="black" stroke-width="1"/><polyline points="250,450 350,550 " fill="none" stroke="black" stroke-width="1"/><polyline points="250,450 150,550 " fill="none" stroke="black" stroke-width="1"/><polyline points="250,450 350,450 " fill="none" stroke="black" stroke-width="1"/><polyline points="650,250 650,350 " fill="none" stroke="black" stroke-width="1"/><polyline points="650,250 750,350 " fill="none" stroke="black" stroke-width="1"/><polyline points="650,250 550,350 " fill="none" stroke="black" stroke-width="1"/><polyline points="650,250 750,250 " fill="none" stroke="black" stroke-width="1"/><polyline points="50,950 150,950 " fill="none" stroke="black" stroke-width="1"/><polyline points="850,550 850,650 " fill="none" stroke="black" stroke-width="1"/><polyline points="850,550 950,650 " fill="none" stroke="black" stroke-width="1"/><polyline points="850,550 750,650 " fill="none" stroke="black" stroke-width="1"/><polyline points="850,550 950,550 " fill="none" stroke="black" stroke-width="1"/><polyline points="650,50 650,150 " fill="none" stroke="black" stroke-width="1"/><polyline points="650,50 750,150 " fill="none" stroke="black" stroke-width="1"/><polyline points="650,50 750,50 " fill="none" stroke="black" stroke-width="1"/><polyline points="650,50 550,150 " fill="none" stroke="black" stroke-width="1"/><polyline points="50,750 50,850 " fill="none" stroke="black" stroke-width="1"/><polyline points="50,750 150,850 " fill="none" stroke="black" stroke-width="1"/><polyline points="50,750 150,750 " fill="none" stroke="black" stroke-width="1"/><polyline points="850,350 850,450 " fill="none" stroke="black" stroke-width="1"/><polyline points="850,350 950,450 " fill="none" stroke="black" stroke-width="1"/><polyline points="850,350 950,350 " fill="none" stroke="black" stroke-width="1"/><polyline points="850,350 750,450 " fill="none" stroke="black" stroke-width="1"/><polyline points="250,250 250,350 " fill="none" stroke="black" stroke-width="1"/><polyline points="250,250 350,350 " fill="none" stroke="black" stroke-width="1"/><polyline points="250,250 350,250 " fill="none" stroke="black" stroke-width="1"/><polyline points="250,250 150,350 " fill="none" stroke="black" stroke-width="1"/><polyline points="650,850 650,950 " fill="none" stroke="black" stroke-width="1"/><polyline points="650,850 750,950 " fill="none" stroke="black" stroke-width="1"/><polyline points="650,850 750,850 " fill="none" stroke="black" stroke-width="1"/><polyline points="650,850 550,950 " fill="none" stroke="black" stroke-width="1"/><polyline points="450,550 450,650 " fill="none" stroke="black" stroke-width="1"/><polyline points="450,550 550,650 " fill="none" stroke="black" stroke-width="1"/><polyline points="450,550 550,550 " fill="none" stroke="black" stroke-width="1"/><polyline points="450,550 350,650 " fill="none" stroke="black" stroke-width="1"/><polyline points="450,150 450,250 " fill="none" stroke="black" stroke-width="1"/><polyline points="450,150 550,250 " fill="none" stroke="black" stroke-width="1"/><polyline points="450,150 350,250 " fill="none" stroke="black" stroke-width="1"/><polyline points="450,150 550,150 " fill="none" stroke="black" stroke-width="1"/><polyline points="850,750 850,850 " fill="none" stroke="black" stroke-width="1"/><polyline points="850,750 950,850 " fill="none" stroke="black" stroke-width="1"/><polyline points="850,750 750,850 " fill="none" stroke="black" stroke-width="1"/><polyline points="850,750 950,750 " fill="none" stroke="black" stroke-width="1"/><polyline points="650,450 650,550 " fill="none" stroke="black" stroke-width="1"/><polyline points="650,450 750,550 " fill="none" stroke="black" stroke-width="1"/><polyline points="650,450 550,550 " fill="none" stroke="black" stroke-width="1"/><polyline points="650,450 750,450 " fill="none" stroke="black" stroke-width="1"/><polyline points="50,350 50,450 " fill="none" stroke="black" stroke-width="1"/><polyline points="50,350 150,450 " fill="none" stroke="black" stroke-width="1"/><polyline points="50,350 150,350 " fill="none" stroke="black" stroke-width="1"/><polyline points="450,950 550,950 " fill="none" stroke="black" stroke-width="1"/><polyline points="250,650 250,750 " fill="none" stroke="black" stroke-width="1"/><polyline points="250,650 350,750 " fill="none" stroke="black" stroke-width="1"/><polyline points="250,650 150,750 " fill="none" stroke="black" stroke-width="1"/><polyline points="250,650 350,650 " fill="none" stroke="black" stroke-width="1"/><polyline points="150,50 250,150 " fill="none" stroke="black" stroke-width="1"/><polyline points="150,50 250,50 " fill="none" stroke="black" stroke-width="1"/><polyline points="150,50 50,150 " fill="none" stroke="black" stroke-width="1"/><polyline points="150,50 150,150 " fill="none" stroke="black" stroke-width="1"/><polyline points="550,650 650,750 " fill="none" stroke="black" stroke-width="1"/><polyline points="550,650 650,650 " fill="none" stroke="black" stroke-width="1"/><polyline points="550,650 450,750 " fill="none" stroke="black" stroke-width="1"/><polyline points="550,650 550,750 " fill="none" stroke="black" stroke-width="1"/><polyline points="350,350 450,450 " fill="none" stroke="black" stroke-width="1"/><polyline points="350,350 450,350 " fill="none" stroke="black" stroke-width="1"/><polyline points="350,350 250,450 " fill="none" stroke="black" stroke-width="1"/><polyline points="350,350 350,450 " fill="none" stroke="black" stroke-width="1"/><polyline points="750,950 850,950 " fill="none" stroke="black" stroke-width="1"/><polyline points="750,150 850,250 " fill="none" stroke="black" stroke-width="1"/><polyline points="750,150 850,150 " fill="none" stroke="black" stroke-width="1"/><polyline points="750,150 650,250 " fill="none" stroke="black" stroke-width="1"/><polyline points="750,150 750,250 " fill="none" stroke="black" stroke-width="1"/><polyline points="150,850 250,950 " fill="none" stroke="black" stroke-width="1"/><polyline points="150,850 250,850 " fill="none" stroke="black" stroke-width="1"/><polyline points="150,850 50,950 " fill="none" stroke="black" stroke-width="1"/><polyline points="150,850 150,950 " fill="none" stroke="black" stroke-width="1"/><polyline points="950,450 850,550 " fill="none" stroke="black" stroke-width="1"/><polyline points="950,450 950,550 " fill="none" stroke="black" stroke-width="1"/><polyline points="950,50 850,150 " fill="none" stroke="black" stroke-width="1"/><polyline points="950,50 950,150 " fill="none" stroke="black" stroke-width="1"/><polyline points="350,750 450,850 " fill="none" stroke="black" stroke-width="1"/><polyline points="350,750 250,850 " fill="none" stroke="black" stroke-width="1"/><polyline points="350,750 450,750 " fill="none" stroke="black" stroke-width="1"/><polyline points="350,750 350,850 " fill="none" stroke="black" stroke-width="1"/><polyline points="150,450 250,550 " fill="none" stroke="black" stroke-width="1"/><polyline points="150,450 50,550 " fill="none" stroke="black" stroke-width="1"/><polyline points="150,450 250,450 " fill="none" stroke="black" stroke-width="1"/><polyline points="150,450 150,550 " fill="none" stroke="black" stroke-width="1"/><polyline points="550,250 650,350 " fill="none" stroke="black" stroke-width="1"/><polyline points="550,250 450,350 " fill="none" stroke="black" stroke-width="1"/><polyline points="550,250 650,250 " fill="none" stroke="black" stroke-width="1"/><polyline points="550,250 550,350 " fill="none" stroke="black" stroke-width="1"/><polyline points="950,850 850,950 " fill="none" stroke="black" stroke-width="1"/><polyline points="950,850 950,950 " fill="none" stroke="black" stroke-width="1"/><polyline points="750,550 850,650 " fill="none" stroke="black" stroke-width="1"/><polyline points="750,550 650,650 " fill="none" stroke="black" stroke-width="1"/><polyline points="750,550 850,550 " fill="none" stroke="black" stroke-width="1"/><polyline points="750,550 750,650 " fill="none" stroke="black" stroke-width="1"/><polyline points="550,50 650,150 " fill="none" stroke="black" stroke-width="1"/><polyline points="550,50 650,50 " fill="none" stroke="black" stroke-width="1"/><polyline points="550,50 450,150 " fill="none" stroke="black" stroke-width="1"/><polyline points="550,50 550,150 " fill="none" stroke="black" stroke-width="1"/><polyline points="950,650 850,750 " fill="none" stroke="black" stroke-width="1"/><polyline points="950,650 950,750 " fill="none" stroke="black" stroke-width="1"/><polyline points="750,350 850,450 " fill="none" stroke="black" stroke-width="1"/><polyline points="750,350 850,350 " fill="none" stroke="black" stroke-width="1"/><polyline points="750,350 650,450 " fill="none" stroke="black" stroke-width="1"/><polyline points="750,350 750,450 " fill="none" stroke="black" stroke-width="1"/><polyline points="150,250 250,350 " fill="none" stroke="black" stroke-width="1"/><polyline points="150,250 250,250 " fill="none" stroke="black" stroke-width="1"/><polyline points="150,250 50,350 " fill="none" stroke="black" stroke-width="1"/><polyline points="150,250 150,350 " fill="none" stroke="black" stroke-width="1"/><polyline points="550,850 650,950 " fill="none" stroke="black" stroke-width="1"/><polyline points="550,850 650,850 " fill="none" stroke="black" stroke-width="1"/><polyline points="550,850 450,950 " fill="none" stroke="black" stroke-width="1"/><polyline points="550,850 550,950 " fill="none" stroke="black" stroke-width="1"/><polyline points="350,550 450,650 " fill="none" stroke="black" stroke-width="1"/><polyline points="350,550 450,550 " fill="none" stroke="black" stroke-width="1"/><polyline points="350,550 250,650 " fill="none" stroke="black" stroke-width="1"/><polyline points="350,550 350,650 " fill="none" stroke="black" stroke-width="1"/><polyline points="350,150 450,250 " fill="none" stroke="black" stroke-width="1"/><polyline points="350,150 250,250 " fill="none" stroke="black" stroke-width="1"/><polyline points="350,150 450,150 " fill="none" stroke="black" stroke-width="1"/><polyline points="350,150 350,250 " fill="none" stroke="black" stroke-width="1"/><polyline points="750,750 850,850 " fill="none" stroke="black" stroke-width="1"/><polyline points="750,750 650,850 " fill="none" stroke="black" stroke-width="1"/><polyline points="750,750 850,750 " fill="none" stroke="black" stroke-width="1"/><polyline points="750,750 750,850 " fill="none" stroke="black" stroke-width="1"/><polyline points="550,450 650,550 " fill="none" stroke="black" stroke-width="1"/><polyline points="550,450 450,550 " fill="none" stroke="black" stroke-width="1"/><polyline points="550,450 650,450 " fill="none" stroke="black" stroke-width="1"/><polyline points="550,450 550,550 " fill="none" stroke="black" stroke-width="1"/><polyline points="950,250 850,350 " fill="none" stroke="black" stroke-width="1"/><polyline points="950,250 950,350 " fill="none" stroke="black" stroke-width="1"/><polyline points="350,950 450,950 " fill="none" stroke="black" stroke-width="1"/><polyline points="150,650 250,750 " fill="none" stroke="black" stroke-width="1"/><polyline points="150,650 50,750 " fill="none" stroke="black" stroke-width="1"/><polyline points="150,650 250,650 " fill="none" stroke="black" stroke-width="1"/><polyline points="150,650 150,750 " fill="none" stroke="black" stroke-width="1"/><polyline points="350,50 450,50 " fill="none" stroke="black" stroke-width="1"/><polyline points="350,50 250,150 " fill="none" stroke="black" stroke-width="1"/><polyline points="350,50 450,150 " fill="none" stroke="black" stroke-width="1"/><polyline points="350,50 350,150 " fill="none" stroke="black" stroke-width="1"/><polyline points="750,650 850,650 " fill="none" stroke="black" stroke-width="1"/><polyline points="750,650 650,750 " fill="none" stroke="black" stroke-width="1"/><polyline points="750,650 850,750 " fill="none" stroke="black" stroke-width="1"/><polyline points="750,650 750,750 " fill="none" stroke="black" stroke-width="1"/><polyline points="550,350 650,350 " fill="none" stroke="black" stroke-width="1"/><polyline points="550,350 450,450 " fill="none" stroke="black" stroke-width="1"/><polyline points="550,350 650,450 " fill="none" stroke="black" stroke-width="1"/><polyline points="550,350 550,450 " fill="none" stroke="black" stroke-width="1"/><polyline points="950,150 850,250 " fill="none" stroke="black" stroke-width="1"/><polyline points="950,150 950,250 " fill="none" stroke="black" stroke-width="1"/><polyline points="350,850 450,850 " fill="none" stroke="black" stroke-width="1"/><polyline points="350,850 250,950 " fill="none" stroke="black" stroke-width="1"/><polyline points="350,850 450,950 " fill="none" stroke="black" stroke-width="1"/><polyline points="350,850 350,950 " fill="none" stroke="black" stroke-width="1"/><polyline points="150,550 250,550 " fill="none" stroke="black" stroke-width="1"/><polyline points="150,550 50,650 " fill="none" stroke="black" stroke-width="1"/><polyline points="150,550 250,650 " fill="none" stroke="black" stroke-width="1"/><polyline points="150,550 150,650 " fill="none" stroke="black" stroke-width="1"/><polyline points="150,150 50,250 " fill="none" stroke="black" stroke-width="1"/><polyline points="150,150 250,150 " fill="none" stroke="black" stroke-width="1"/><polyline points="150,150 250,250 " fill="none" stroke="black" stroke-width="1"/><polyline points="150,150 150,250 " fill="none" stroke="black" stroke-width="1"/><polyline points="550,750 450,850 " fill="none" stroke="black" stroke-width="1"/><polyline points="550,750 650,750 " fill="none" stroke="black" stroke-width="1"/><polyline points="550,750 650,850 " fill="none" stroke="black" stroke-width="1"/><polyline points="550,750 550,850 " fill="none" stroke="black" stroke-width="1"/><polyline points="350,450 250,550 " fill="none" stroke="black" stroke-width="1"/><polyline points="350,450 450,450 " fill="none" stroke="black" stroke-width="1"/><polyline points="350,450 450,550 " fill="none" stroke="black" stroke-width="1"/><polyline points="350,450 350,550 " fill="none" stroke="black" stroke-width="1"/><polyline points="750,250 650,350 " fill="none" stroke="black" stroke-width="1"/><polyline points="750,250 850,250 " fill="none" stroke="black" stroke-width="1"/><polyline points="750,250 850,350 " fill="none" stroke="black" stroke-width="1"/><polyline points="750,250 750,350 " fill="none" stroke="black" stroke-width="1"/><polyline points="150,950 250,950 " fill="none" stroke="black" stroke-width="1"/><polyline points="950,550 850,650 " fill="none" stroke="black" stroke-width="1"/><polyline points="950,550 950,650 " fill="none" stroke="black" stroke-width="1"/><polyline points="750,50 650,150 " fill="none" stroke="black" stroke-width="1"/><polyline points="750,50 850,50 " fill="none" stroke="black" stroke-width="1"/><polyline points="750,50 850,150 " fill="none" stroke="black" stroke-width="1"/><polyline points="750,50 750,150 " fill="none" stroke="black" stroke-width="1"/><polyline points="150,750 50,850 " fill="none" stroke="black" stroke-width="1"/><polyline points="150,750 250,750 " fill="none" stroke="black" stroke-width="1"/><polyline points="150,750 250,850 " fill="none" stroke="black" stroke-width="1"/><polyline points="150,750 150,850 " fill="none" stroke="black" stroke-width="1"/><polyline points="950,350 850,450 " fill="none" stroke="black" stroke-width="1"/><polyline points="950,350 950,450 " fill="none" stroke="black" stroke-width="1"/><polyline points="350,250 250,350 " fill="none" stroke="black" stroke-width="1"/><polyline points="350,250 450,250 " fill="none" stroke="black" stroke-width="1"/><polyline points="350,250 450,350 " fill="none" stroke="black" stroke-width="1"/><polyline points="350,250 350,350 " fill="none" stroke="black" stroke-width="1"/><polyline points="750,850 650,950 " fill="none" stroke="black" stroke-width="1"/><polyline points="750,850 850,850 " fill="none" stroke="black" stroke-width="1"/><polyline points="750,850 850,950 " fill="none" stroke="black" stroke-width="1"/><polyline points="750,850 750,950 " fill="none" stroke="black" stroke-width="1"/><polyline points="550,550 450,650 " fill="none" stroke="black" stroke-width="1"/><polyline points="550,550 650,550 " fill="none" stroke="black" stroke-width="1"/><polyline points="550,550 650,650 " fill="none" stroke="black" stroke-width="1"/><polyline points="550,550 550,650 " fill="none" stroke="black" stroke-width="1"/><polyline points="550,150 650,150 " fill="none" stroke="black" stroke-width="1"/><polyline points="550,150 450,250 " fill="none" stroke="black" stroke-width="1"/><polyline points="550,150 650,250 " fill="none" stroke="black" stroke-width="1"/><polyline points="550,150 550,250 " fill="none" stroke="black" stroke-width="1"/><polyline points="950,750 850,850 " fill="none" stroke="black" stroke-width="1"/><polyline points="950,750 950,850 " fill="none" stroke="black" stroke-width="1"/><polyline points="750,450 850,450 " fill="none" stroke="black" stroke-width="1"/><polyline points="750,450 650,550 " fill="none" stroke="black" stroke-width="1"/><polyline points="750,450 850,550 " fill="none" stroke="black" stroke-width="1"/><polyline points="750,450 750,550 " fill="none" stroke="black" stroke-width="1"/><polyline points="150,350 250,350 " fill="none" stroke="black" stroke-width="1"/><polyline points="150,350 50,450 " fill="none" stroke="black" stroke-width="1"/><polyline points="150,350 250,450 " fill="none" stroke="black" stroke-width="1"/><polyline points="150,350 150,450 " fill="none" stroke="black" stroke-width="1"/><polyline points="550,950 650,950 " fill="none" stroke="black" stroke-width="1"/><polyline points="350,650 450,650 " fill="none" stroke="black" stroke-width="1"/><polyline points="350,650 250,750 " fill="none" stroke="black" stroke-width="1"/><polyline points="350,650 450,750 " fill="none" stroke="black" stroke-width="1"/><polyline points="350,650 350,750 " fill="none" stroke="black" stroke-width="1"/><polyline points="50,50 50,150 " fill="none" stroke="red" stroke-width="3"/><polyline points="50,50 150,50 " fill="none" stroke="red" stroke-width="3"/><polyline points="50,50 150,150 " fill="none" stroke="red" stroke-width="3"/><polyline points="250,150 350,250 " fill="none" stroke="red" stroke-width="3"/><polyline points="250,50 250,150 " fill="none" stroke="red" stroke-width="3"/><polyline points="250,50 350,150 " fill="none" stroke="red" stroke-width="3"/><polyline points="250,50 350,50 " fill="none" stroke="red" stroke-width="3"/><polyline points="250,50 150,150 " fill="none" stroke="red" stroke-width="3"/><polyline points="50,150 50,250 " fill="none" stroke="red" stroke-width="3"/><polyline points="50,150 150,250 " fill="none" stroke="red" stroke-width="3"/><polyline points="450,150 350,250 " fill="none" stroke="red" stroke-width="3"/><polyline points="150,50 250,50 " fill="none" stroke="red" stroke-width="3"/><polyline points="350,150 350,250 " fill="none" stroke="red" stroke-width="3"/><polyline points="350,50 450,50 " fill="none" stroke="red" stroke-width="3"/><polyline points="350,50 450,150 " fill="none" stroke="red" stroke-width="3"/><polyline points="350,50 350,150 " fill="none" stroke="red" stroke-width="3"/><polyline points="150,150 250,150 " fill="none" stroke="red" stroke-width="3"/><polyline points="50,250 150,350 " fill="none" stroke="green" stroke-width="6"/><polyline points="150,350 250,350 " fill="none" stroke="green" stroke-width="6"/><polyline points="350,250 250,350 " fill="none" stroke="green" stroke-width="6"/><polyline points="350,150 250,250 " fill="none" stroke="Navy" stroke-width="6"/><polyline points="150,250 250,250 " fill="none" stroke="Navy" stroke-width="6"/><polyline points="250,50 350,50 " fill="none" stroke="Violet" stroke-width="6"/><polyline points="350,50 350,150 " fill="none" stroke="Aquamarine" stroke-width="6"/><polyline points="350,50 450,150 " fill="none" stroke="Aquamarine" stroke-width="6"/><polyline points="250,50 350,50 " fill="none" stroke="Aquamarine" stroke-width="6"/><polyline points="350,50 450,50 " fill="none" stroke="Aquamarine" stroke-width="6"/><polyline points="350,150 450,150 " fill="none" stroke="Aquamarine" stroke-width="6"/><polyline points="250,50 350,150 " fill="none" stroke="Aquamarine" stroke-width="6"/><polyline points="450,50 350,150 " fill="none" stroke="Aquamarine" stroke-width="6"/><polyline points="450,50 450,150 " fill="none" stroke="Aquamarine" stroke-width="6"/><circle id="node_0_0" r="25" cx="50" cy="50" fill="none" stroke="black" /><circle id="node_64_0" r="25" cx="450" cy="650" fill="none" stroke="black" /><circle id="node_32_0" r="25" cx="250" cy="350" fill="none" stroke="black" /><circle id="node_96_0" r="25" cx="650" cy="950" fill="none" stroke="black" /><circle id="node_16_0" r="25" cx="650" cy="150" fill="none" stroke="black" /><circle id="node_80_0" r="25" cx="50" cy="850" fill="none" stroke="black" /><circle id="node_48_0" r="25" cx="850" cy="450" fill="none" stroke="black" /><circle id="node_8_0" r="25" cx="850" cy="50" fill="none" stroke="black" /><circle id="node_72_0" r="25" cx="250" cy="750" fill="none" stroke="black" /><circle id="node_40_0" r="25" cx="50" cy="450" fill="none" stroke="black" /><circle id="node_24_0" r="25" cx="450" cy="250" fill="none" stroke="black" /><circle id="node_88_0" r="25" cx="850" cy="850" fill="none" stroke="black" /><circle id="node_56_0" r="25" cx="650" cy="550" fill="none" stroke="black" /><circle id="node_4_0" r="25" cx="450" cy="50" fill="none" stroke="black" /><circle id="node_68_0" r="25" cx="850" cy="650" fill="none" stroke="black" /><circle id="node_36_0" r="25" cx="650" cy="350" fill="none" stroke="black" /><circle id="node_20_0" r="25" cx="50" cy="250" fill="none" stroke="black" /><circle id="node_84_0" r="25" cx="450" cy="850" fill="none" stroke="black" /><circle id="node_52_0" r="25" cx="250" cy="550" fill="none" stroke="black" /><circle id="node_12_0" r="25" cx="250" cy="150" fill="none" stroke="black" /><circle id="node_76_0" r="25" cx="650" cy="750" fill="none" stroke="black" /><circle id="node_44_0" r="25" cx="450" cy="450" fill="none" stroke="black" /><circle id="node_28_0" r="25" cx="850" cy="250" fill="none" stroke="black" /><circle id="node_92_0" r="25" cx="250" cy="950" fill="none" stroke="black" /><circle id="node_60_0" r="25" cx="50" cy="650" fill="none" stroke="black" /><circle id="node_2_0" r="25" cx="250" cy="50" fill="none" stroke="black" /><circle id="node_66_0" r="25" cx="650" cy="650" fill="none" stroke="black" /><circle id="node_34_0" r="25" cx="450" cy="350" fill="none" stroke="black" /><circle id="node_98_0" r="25" cx="850" cy="950" fill="none" stroke="black" /><circle id="node_18_0" r="25" cx="850" cy="150" fill="none" stroke="black" /><circle id="node_82_0" r="25" cx="250" cy="850" fill="none" stroke="black" /><circle id="node_50_0" r="25" cx="50" cy="550" fill="none" stroke="black" /><circle id="node_10_0" r="25" cx="50" cy="150" fill="none" stroke="black" /><circle id="node_74_0" r="25" cx="450" cy="750" fill="none" stroke="black" /><circle id="node_42_0" r="25" cx="250" cy="450" fill="none" stroke="black" /><circle id="node_26_0" r="25" cx="650" cy="250" fill="none" stroke="black" /><circle id="node_90_0" r="25" cx="50" cy="950" fill="none" stroke="black" /><circle id="node_58_0" r="25" cx="850" cy="550" fill="none" stroke="black" /><circle id="node_6_0" r="25" cx="650" cy="50" fill="none" stroke="black" /><circle id="node_70_0" r="25" cx="50" cy="750" fill="none" stroke="black" /><circle id="node_38_0" r="25" cx="850" cy="350" fill="none" stroke="black" /><circle id="node_22_0" r="25" cx="250" cy="250" fill="none" stroke="black" /><circle id="node_86_0" r="25" cx="650" cy="850" fill="none" stroke="black" /><circle id="node_54_0" r="25" cx="450" cy="550" fill="none" stroke="black" /><circle id="node_14_0" r="25" cx="450" cy="150" fill="none" stroke="black" /><circle id="node_78_0" r="25" cx="850" cy="750" fill="none" stroke="black" /><circle id="node_46_0" r="25" cx="650" cy="450" fill="none" stroke="black" /><circle id="node_30_0" r="25" cx="50" cy="350" fill="none" stroke="black" /><circle id="node_94_0" r="25" cx="450" cy="950" fill="none" stroke="black" /><circle id="node_62_0" r="25" cx="250" cy="650" fill="none" stroke="black" /><circle id="node_1_0" r="25" cx="150" cy="50" fill="none" stroke="black" /><circle id="node_65_0" r="25" cx="550" cy="650" fill="none" stroke="black" /><circle id="node_33_0" r="25" cx="350" cy="350" fill="none" stroke="black" /><circle id="node_97_0" r="25" cx="750" cy="950" fill="none" stroke="black" /><circle id="node_17_0" r="25" cx="750" cy="150" fill="none" stroke="black" /><circle id="node_81_0" r="25" cx="150" cy="850" fill="none" stroke="black" /><circle id="node_49_0" r="25" cx="950" cy="450" fill="none" stroke="black" /><circle id="node_9_0" r="25" cx="950" cy="50" fill="none" stroke="black" /><circle id="node_73_0" r="25" cx="350" cy="750" fill="none" stroke="black" /><circle id="node_41_0" r="25" cx="150" cy="450" fill="none" stroke="black" /><circle id="node_25_0" r="25" cx="550" cy="250" fill="none" stroke="black" /><circle id="node_89_0" r="25" cx="950" cy="850" fill="none" stroke="black" /><circle id="node_57_0" r="25" cx="750" cy="550" fill="none" stroke="black" /><circle id="node_5_0" r="25" cx="550" cy="50" fill="none" stroke="black" /><circle id="node_69_0" r="25" cx="950" cy="650" fill="none" stroke="black" /><circle id="node_37_0" r="25" cx="750" cy="350" fill="none" stroke="black" /><circle id="node_21_0" r="25" cx="150" cy="250" fill="none" stroke="black" /><circle id="node_85_0" r="25" cx="550" cy="850" fill="none" stroke="black" /><circle id="node_53_0" r="25" cx="350" cy="550" fill="none" stroke="black" /><circle id="node_13_0" r="25" cx="350" cy="150" fill="none" stroke="black" /><circle id="node_77_0" r="25" cx="750" cy="750" fill="none" stroke="black" /><circle id="node_45_0" r="25" cx="550" cy="450" fill="none" stroke="black" /><circle id="node_29_0" r="25" cx="950" cy="250" fill="none" stroke="black" /><circle id="node_93_0" r="25" cx="350" cy="950" fill="none" stroke="black" /><circle id="node_61_0" r="25" cx="150" cy="650" fill="none" stroke="black" /><circle id="node_3_0" r="25" cx="350" cy="50" fill="none" stroke="black" /><circle id="node_67_0" r="25" cx="750" cy="650" fill="none" stroke="black" /><circle id="node_35_0" r="25" cx="550" cy="350" fill="none" stroke="black" /><circle id="node_99_0" r="25" cx="950" cy="950" fill="none" stroke="black" /><circle id="node_19_0" r="25" cx="950" cy="150" fill="none" stroke="black" /><circle id="node_83_0" r="25" cx="350" cy="850" fill="none" stroke="black" /><circle id="node_51_0" r="25" cx="150" cy="550" fill="none" stroke="black" /><circle id="node_11_0" r="25" cx="150" cy="150" fill="none" stroke="black" /><circle id="node_75_0" r="25" cx="550" cy="750" fill="none" stroke="black" /><circle id="node_43_0" r="25" cx="350" cy="450" fill="none" stroke="black" /><circle id="node_27_0" r="25" cx="750" cy="250" fill="none" stroke="black" /><circle id="node_91_0" r="25" cx="150" cy="950" fill="none" stroke="black" /><circle id="node_59_0" r="25" cx="950" cy="550" fill="none" stroke="black" /><circle id="node_7_0" r="25" cx="750" cy="50" fill="none" stroke="black" /><circle id="node_71_0" r="25" cx="150" cy="750" fill="none" stroke="black" /><circle id="node_39_0" r="25" cx="950" cy="350" fill="none" stroke="black" /><circle id="node_23_0" r="25" cx="350" cy="250" fill="none" stroke="black" /><circle id="node_87_0" r="25" cx="750" cy="850" fill="none" stroke="black" /><circle id="node_55_0" r="25" cx="550" cy="550" fill="none" stroke="black" /><circle id="node_15_0" r="25" cx="550" cy="150" fill="none" stroke="black" /><circle id="node_79_0" r="25" cx="950" cy="750" fill="none" stroke="black" /><circle id="node_47_0" r="25" cx="750" cy="450" fill="none" stroke="black" /><circle id="node_31_0" r="25" cx="150" cy="350" fill="none" stroke="black" /><circle id="node_95_0" r="25" cx="550" cy="950" fill="none" stroke="black" /><circle id="node_63_0" r="25" cx="350" cy="650" fill="none" stroke="black" /><circle id="node_0_3" r="25" cx="50" cy="50" fill="Cyan" stroke="black" /><circle id="node_2_5" r="33.3333" cx="250" cy="50" fill="Lawngreen" stroke="black" /><circle id="node_11_3" r="25" cx="150" cy="150" fill="yellow" stroke="black" /><circle id="node_31_3" r="25" cx="150" cy="350" fill="green" stroke="black" /><circle id="node_23_3" r="25" cx="350" cy="250" fill="green" stroke="black" /><circle id="node_20_3" r="25" cx="50" cy="250" fill="green" stroke="black" /><circle id="node_32_3" r="25" cx="250" cy="350" fill="green" stroke="black" /><circle id="node_13_4" r="29.1667" cx="350" cy="150" fill="Navy" stroke="black" /><circle id="node_21_3" r="25" cx="150" cy="250" fill="Navy" stroke="black" /><circle id="node_22_3" r="25" cx="250" cy="250" fill="Navy" stroke="black" /><circle id="node_10_3" r="25" cx="50" cy="150" fill="purple" stroke="black" /><circle id="node_3_4" r="29.1667" cx="350" cy="50" fill="Violet" stroke="black" /><circle id="node_2_4" r="29.1667" cx="250" cy="50" fill="Violet" stroke="black" /><circle id="node_1_3" r="25" cx="150" cy="50" fill="magenta" stroke="black" /><circle id="node_12_3" r="25" cx="250" cy="150" fill="blue" stroke="black" /><circle id="node_3_3" r="25" cx="350" cy="50" fill="Aquamarine" stroke="black" /><circle id="node_13_3" r="25" cx="350" cy="150" fill="Aquamarine" stroke="black" /><circle id="node_14_3" r="25" cx="450" cy="150" fill="Aquamarine" stroke="black" /><circle id="node_2_3" r="25" cx="250" cy="50" fill="Aquamarine" stroke="black" /><circle id="node_4_3" r="25" cx="450" cy="50" fill="Aquamarine" stroke="black" /></svg>