<svg height="1450" width="900" xmlns="http://www.w3.org/2000/svg" viewBox="0 0 900 1450"><rect x="0" y="0" width="900" height="1450" fill="white"/><polyline points="100,150 50,375 100,600 " fill="none" stroke="black" stroke-width="1"/><polyline points="100,150 250,150 " fill="none" stroke="black" stroke-width="1"/><polyline points="100,150 250,350 " fill="none" stroke="black" stroke-width="1"/><polyline points="100,150 250,250 " fill="none" stroke="black" stroke-width="1"/><polyline points="100,150 250,450 " fill="none" stroke="black" stroke-width="1"/><polyline points="700,1050 850,1050 " fill="none" stroke="black" stroke-width="1"/><polyline points="700,1050 850,1250 " fill="none" stroke="black" stroke-width="1"/><polyline points="700,1050 850,1150 " fill="none" stroke="black" stroke-width="1"/><polyline points="700,1050 850,1350 " fill="none" stroke="black" stroke-width="1"/><polyline points="400,600 350,825 400,1050 " fill="none" stroke="black" stroke-width="1"/><polyline points="400,600 550,600 " fill="none" stroke="black" stroke-width="1"/><polyline points="400,600 550,800 " fill="none" stroke="black" stroke-width="1"/><polyline points="400,600 550,700 " fill="none" stroke="black" stroke-width="1"/><polyline points="400,600 550,900 " fill="none" stroke="black" stroke-width="1"/><polyline points="700,150 650,375 700,600 " fill="none" stroke="black" stroke-width="1"/><polyline points="700,150 850,150 " fill="none" stroke="black" stroke-width="1"/><polyline points="700,150 850,350 " fill="none" stroke="black" stroke-width="1"/><polyline points="700,150 850,250 " fill="none" stroke="black" stroke-width="1"/><polyline points="700,150 850,450 " fill="none" stroke="black" stroke-width="1"/><polyline points="100,1050 250,1050 " fill="none" stroke="black" stroke-width="1"/><polyline points="100,1050 250,1250 " fill="none" stroke="black" stroke-width="1"/><polyline points="100,1050 250,1150 " fill="none" stroke="black" stroke-width="1"/><polyline points="100,1050 250,1350 " fill="none" stroke="black" stroke-width="1"/><polyline points="400,150 350,375 400,600 " fill="none" stroke="black" stroke-width="1"/><polyline points="400,150 550,150 " fill="none" stroke="black" stroke-width="1"/><polyline points="400,150 550,350 " fill="none" stroke="black" stroke-width="1"/><polyline points="400,150 550,250 " fill="none" stroke="black" stroke-width="1"/><polyline points="400,150 550,450 " fill="none" stroke="black" stroke-width="1"/><polyline points="700,600 650,825 700,1050 " fill="none" stroke="black" stroke-width="1"/><polyline points="700,600 850,600 " fill="none" stroke="black" stroke-width="1"/><polyline points="700,600 850,800 " fill="none" stroke="black" stroke-width="1"/><polyline points="700,600 850,700 " fill="none" stroke="black" stroke-width="1"/><polyline points="700,600 850,900 " fill="none" stroke="black" stroke-width="1"/><polyline points="100,600 50,825 100,1050 " fill="none" stroke="black" stroke-width="1"/><polyline points="100,600 250,600 " fill="none" stroke="black" stroke-width="1"/><polyline points="100,600 250,800 " fill="none" stroke="black" stroke-width="1"/><polyline points="100,600 250,700 " fill="none" stroke="black" stroke-width="1"/><polyline points="100,600 250,900 " fill="none" stroke="black" stroke-width="1"/><polyline points="400,1050 550,1050 " fill="none" stroke="black" stroke-width="1"/><polyline points="400,1050 550,1250 " fill="none" stroke="black" stroke-width="1"/><polyline points="400,1050 550,1150 " fill="none" stroke="black" stroke-width="1"/><polyline points="400,1050 550,1350 " fill="none" stroke="black" stroke-width="1"/><polyline points="250,150 400,200 550,150 " fill="none" stroke="black" stroke-width="1"/><polyline points="550,600 700,650 850,600 " fill="none" stroke="black" stroke-width="1"/><polyline points="250,1050 400,1100 550,1050 " fill="none" stroke="black" stroke-width="1"/><polyline points="550,150 700,200 850,150 " fill="none" stroke="black" stroke-width="1"/><polyline points="250,600 400,650 550,600 " fill="none" stroke="black" stroke-width="1"/><polyline points="550,1050 700,1100 850,1050 " fill="none" stroke="black" stroke-width="1"/><polyline points="100,350 250,150 " fill="none" stroke="black" stroke-width="1"/><polyline points="100,350 50,575 100,800 " fill="none" stroke="black" stroke-width="1"/><polyline points="100,350 250,350 " fill="none" stroke="black" stroke-width="1"/><polyline points="100,350 250,250 " fill="none" stroke="black" stroke-width="1"/><polyline points="100,350 250,450 " fill="none" stroke="black" stroke-width="1"/><polyline points="700,1250 850,1050 " fill="none" stroke="black" stroke-width="1"/><polyline points="700,1250 850,1250 " fill="none" stroke="black" stroke-width="1"/><polyline points="700,1250 850,1150 " fill="none" stroke="black" stroke-width="1"/><polyline points="700,1250 850,1350 " fill="none" stroke="black" stroke-width="1"/><polyline points="400,800 550,600 " fill="none" stroke="black" stroke-width="1"/><polyline points="400,800 350,1025 400,1250 " fill="none" stroke="black" stroke-width="1"/><polyline points="400,800 550,800 " fill="none" stroke="black" stroke-width="1"/><polyline points="400,800 550,700 " fill="none" stroke="black" stroke-width="1"/><polyline points="400,800 550,900 " fill="none" stroke="black" stroke-width="1"/><polyline points="700,350 850,150 " fill="none" stroke="black" stroke-width="1"/><polyline points="700,350 650,575 700,800 " fill="none" stroke="black" stroke-width="1"/><polyline points="700,350 850,350 " fill="none" stroke="black" stroke-width="1"/><polyline points="700,350 850,250 " fill="none" stroke="black" stroke-width="1"/><polyline points="700,350 850,450 " fill="none" stroke="black" stroke-width="1"/><polyline points="100,1250 250,1050 " fill="none" stroke="black" stroke-width="1"/><polyline points="100,1250 250,1250 " fill="none" stroke="black" stroke-width="1"/><polyline points="100,1250 250,1150 " fill="none" stroke="black" stroke-width="1"/><polyline points="100,1250 250,1350 " fill="none" stroke="black" stroke-width="1"/><polyline points="400,350 550,150 " fill="none" stroke="black" stroke-width="1"/><polyline points="400,350 350,575 400,800 " fill="none" stroke="black" stroke-width="1"/><polyline points="400,350 550,350 " fill="none" stroke="black" stroke-width="1"/><polyline points="400,350 550,250 " fill="none" stroke="black" stroke-width="1"/><polyline points="400,350 550,450 " fill="none" stroke="black" stroke-width="1"/><polyline points="700,800 850,600 " fill="none" stroke="black" stroke-width="1"/><polyline points="700,800 650,1025 700,1250 " fill="none" stroke="black" stroke-width="1"/><polyline points="700,800 850,800 " fill="none" stroke="black" stroke-width="1"/><polyline points="700,800 850,700 " fill="none" stroke="black" stroke-width="1"/><polyline points="700,800 850,900 " fill="none" stroke="black" stroke-width="1"/><polyline points="100,800 250,600 " fill="none" stroke="black" stroke-width="1"/><polyline points="100,800 50,1025 100,1250 " fill="none" stroke="black" stroke-width="1"/><polyline points="100,800 250,800 " fill="none" stroke="black" stroke-width="1"/><polyline points="100,800 250,700 " fill="none" stroke="black" stroke-width="1"/><polyline points="100,800 250,900 " fill="none" stroke="black" stroke-width="1"/><polyline points="400,1250 550,1050 " fill="none" stroke="black" stroke-width="1"/><polyline points="400,1250 550,1250 " fill="none" stroke="black" stroke-width="1"/><polyline points="400,1250 550,1150 " fill="none" stroke="black" stroke-width="1"/><polyline points="400,1250 550,1350 " fill="none" stroke="black" stroke-width="1"/><polyline points="250,350 400,400 550,350 " fill="none" stroke="black" stroke-width="1"/><polyline points="550,800 700,850 850,800 " fill="none" stroke="black" stroke-width="1"/><polyline points="250,1250 400,1300 550,1250 " fill="none" stroke="black" stroke-width="1"/><polyline points="550,350 700,400 850,350 " fill="none" stroke="black" stroke-width="1"/><polyline points="250,800 400,850 550,800 " fill="none" stroke="black" stroke-width="1"/><polyline points="550,1250 700,1300 850,1250 " fill="none" stroke="black" stroke-width="1"/><polyline points="100,250 250,150 " fill="none" stroke="black" stroke-width="1"/><polyline points="100,250 250,350 " fill="none" stroke="black" stroke-width="1"/><polyline points="100,250 50,475 100,700 " fill="none" stroke="black" stroke-width="1"/><polyline points="100,250 250,250 " fill="none" stroke="black" stroke-width="1"/><polyline points="100,250 250,450 " fill="none" stroke="black" stroke-width="1"/><polyline points="700,1150 850,1050 " fill="none" stroke="black" stroke-width="1"/><polyline points="700,1150 850,1250 " fill="none" stroke="black" stroke-width="1"/><polyline points="700,1150 850,1150 " fill="none" stroke="black" stroke-width="1"/><polyline points="700,1150 850,1350 " fill="none" stroke="black" stroke-width="1"/><polyline points="400,700 550,600 " fill="none" stroke="black" stroke-width="1"/><polyline points="400,700 550,800 " fill="none" stroke="black" stroke-width="1"/><polyline points="400,700 350,925 400,1150 " fill="none" stroke="black" stroke-width="1"/><polyline points="400,700 550,700 " fill="none" stroke="black" stroke-width="1"/><polyline points="400,700 550,900 " fill="none" stroke="black" stroke-width="1"/><polyline points="700,250 850,150 " fill="none" stroke="black" stroke-width="1"/><polyline points="700,250 850,350 " fill="none" stroke="black" stroke-width="1"/><polyline points="700,250 650,475 700,700 " fill="none" stroke="black" stroke-width="1"/><polyline points="700,250 850,250 " fill="none" stroke="black" stroke-width="1"/><polyline points="700,250 850,450 " fill="none" stroke="black" stroke-width="1"/><polyline points="100,1150 250,1050 " fill="none" stroke="black" stroke-width="1"/><polyline points="100,1150 250,1250 " fill="none" stroke="black" stroke-width="1"/><polyline points="100,1150 250,1150 " fill="none" stroke="black" stroke-width="1"/><polyline points="100,1150 250,1350 " fill="none" stroke="black" stroke-width="1"/><polyline points="400,250 550,150 " fill="none" stroke="black" stroke-width="1"/><polyline points="400,250 550,350 " fill="none" stroke="black" stroke-width="1"/><polyline points="400,250 350,475 400,700 " fill="none" stroke="black" stroke-width="1"/><polyline points="400,250 550,250 " fill="none" stroke="black" stroke-width="1"/><polyline points="400,250 550,450 " fill="none" stroke="black" stroke-width="1"/><polyline points="700,700 850,600 " fill="none" stroke="black" stroke-width="1"/><polyline points="700,700 850,800 " fill="none" stroke="black" stroke-width="1"/><polyline points="700,700 650,925 700,1150 " fill="none" stroke="black" stroke-width="1"/><polyline points="700,700 850,700 " fill="none" stroke="black" stroke-width="1"/><polyline points="700,700 850,900 " fill="none" stroke="black" stroke-width="1"/><polyline points="100,700 250,600 " fill="none" stroke="black" stroke-width="1"/><polyline points="100,700 250,800 " fill="none" stroke="black" stroke-width="1"/><polyline points="100,700 50,925 100,1150 " fill="none" stroke="black" stroke-width="1"/><polyline points="100,700 250,700 " fill="none" stroke="black" stroke-width="1"/><polyline points="100,700 250,900 " fill="none" stroke="black" stroke-width="1"/><polyline points="400,1150 550,1050 " fill="none" stroke="black" stroke-width="1"/><polyline points="400,1150 550,1250 " fill="none" stroke="black" stroke-width="1"/><polyline points="400,1150 550,1150 " fill="none" stroke="black" stroke-width="1"/><polyline points="400,1150 550,1350 " fill="none" stroke="black" stroke-width="1"/><polyline points="250,250 400,300 550,250 " fill="none" stroke="black" stroke-width="1"/><polyline points="550,700 700,750 850,700 " fill="none" stroke="black" stroke-width="1"/><polyline points="250,1150 400,1200 550,1150 " fill="none" stroke="black" stroke-width="1"/><polyline points="550,250 700,300 850,250 " fill="none" stroke="black" stroke-width="1"/><polyline points="250,700 400,750 550,700 " fill="none" stroke="black" stroke-width="1"/><polyline points="550,1150 700,1200 850,1150 " fill="none" stroke="black" stroke-width="1"/><polyline points="100,450 250,150 " fill="none" stroke="black" stroke-width="1"/><polyline points="100,450 250,350 " fill="none" stroke="black" stroke-width="1"/><polyline points="100,450 250,250 " fill="none" stroke="black" stroke-width="1"/><polyline points="100,450 50,675 100,900 " fill="none" stroke="black" stroke-width="1"/><polyline points="100,450 250,450 " fill="none" stroke="black" stroke-width="1"/><polyline points="700,1350 850,1050 " fill="none" stroke="black" stroke-width="1"/><polyline points="700,1350 850,1250 " fill="none" stroke="black" stroke-width="1"/><polyline points="700,1350 850,1150 " fill="none" stroke="black" stroke-width="1"/><polyline points="700,1350 850,1350 " fill="none" stroke="black" stroke-width="1"/><polyline points="400,900 550,600 " fill="none" stroke="black" stroke-width="1"/><polyline points="400,900 550,800 " fill="none" stroke="black" stroke-width="1"/><polyline points="400,900 550,700 " fill="none" stroke="black" stroke-width="1"/><polyline points="400,900 350,1125 400,1350 " fill="none" stroke="black" stroke-width="1"/><polyline points="400,900 550,900 " fill="none" stroke="black" stroke-width="1"/><polyline points="700,450 850,150 " fill="none" stroke="black" stroke-width="1"/><polyline points="700,450 850,350 " fill="none" stroke="black" stroke-width="1"/><polyline points="700,450 850,250 " fill="none" stroke="black" stroke-width="1"/><polyline points="700,450 650,675 700,900 " fill="none" stroke="black" stroke-width="1"/><polyline points="700,450 850,450 " fill="none" stroke="black" stroke-width="1"/><polyline points="100,1350 250,1050 " fill="none" stroke="black" stroke-width="1"/><polyline points="100,1350 250,1250 " fill="none" stroke="black" stroke-width="1"/><polyline points="100,1350 250,1150 " fill="none" stroke="black" stroke-width="1"/><polyline points="100,1350 250,1350 " fill="none" stroke="black" stroke-width="1"/><polyline points="400,450 550,150 " fill="none" stroke="black" stroke-width="1"/><polyline points="400,450 550,350 " fill="none" stroke="black" stroke-width="1"/><polyline points="400,450 550,250 " fill="none" stroke="black" stroke-width="1"/><polyline points="400,450 350,675 400,900 " fill="none" stroke="black" stroke-width="1"/><polyline points="400,450 550,450 " fill="none" stroke="black" stroke-width="1"/><polyline points="700,900 850,600 " fill="none" stroke="black" stroke-width="1"/><polyline points="700,900 850,800 " fill="none" stroke="black" stroke-width="1"/><polyline points="700,900 850,700 " fill="none" stroke="black" stroke-width="1"/><polyline points="700,900 650,1125 700,1350 " fill="none" stroke="black" stroke-width="1"/><polyline points="700,900 850,900 " fill="none" stroke="black" stroke-width="1"/><polyline points="100,900 250,600 " fill="none" stroke="black" stroke-width="1"/><polyline points="100,900 250,800 " fill="none" stroke="black" stroke-width="1"/><polyline points="100,900 250,700 " fill="none" stroke="black" stroke-width="1"/><polyline points="100,900 50,1125 100,1350 " fill="none" stroke="black" stroke-width="1"/><polyline points="100,900 250,900 " fill="none" stroke="black" stroke-width="1"/><polyline points="400,1350 550,1050 " fill="none" stroke="black" stroke-width="1"/><polyline points="400,1350 550,1250 " fill="none" stroke="black" stroke-width="1"/><polyline points="400,1350 550,1150 " fill="none" stroke="black" stroke-width="1"/><polyline points="400,1350 550,1350 " fill="none" stroke="black" stroke-width="1"/><polyline points="250,450 400,500 550,450 " fill="none" stroke="black" stroke-width="1"/><polyline points="550,900 700,950 850,900 " fill="none" stroke="black" stroke-width="1"/><polyline points="250,1350 400,1400 550,1350 " fill="none" stroke="black" stroke-width="1"/><polyline points="550,450 700,500 850,450 " fill="none" stroke="black" stroke-width="1"/><polyline points="250,900 400,950 550,900 " fill="none" stroke="black" stroke-width="1"/><polyline points="550,1350 700,1400 850,1350 " fill="none" stroke="black" stroke-width="1"/><circle id="node_0_0" r="25" cx="100" cy="150" fill="white" stroke="black" /><circle id="node_64_0" r="25" cx="700" cy="1050" fill="white" stroke="black" /><circle id="node_32_0" r="25" cx="400" cy="600" fill="white" stroke="black" /><circle id="node_16_0" r="25" cx="700" cy="150" fill="white" stroke="black" /><circle id="node_48_0" r="25" cx="100" cy="1050" fill="white" stroke="black" /><circle id="node_8_0" r="25" cx="400" cy="150" fill="white" stroke="black" /><circle id="node_40_0" r="25" cx="700" cy="600" fill="white" stroke="black" /><circle id="node_24_0" r="25" cx="100" cy="600" fill="white" stroke="black" /><circle id="node_56_0" r="25" cx="400" cy="1050" fill="white" stroke="black" /><circle id="node_4_0" r="25" cx="250" cy="150" fill="white" stroke="black" /><circle id="node_68_0" r="25" cx="850" cy="1050" fill="white" stroke="black" /><circle id="node_36_0" r="25" cx="550" cy="600" fill="white" stroke="black" /><circle id="node_20_0" r="25" cx="850" cy="150" fill="white" stroke="black" /><circle id="node_52_0" r="25" cx="250" cy="1050" fill="white" stroke="black" /><circle id="node_12_0" r="25" cx="550" cy="150" fill="white" stroke="black" /><circle id="node_44_0" r="25" cx="850" cy="600" fill="white" stroke="black" /><circle id="node_28_0" r="25" cx="250" cy="600" fill="white" stroke="black" /><circle id="node_60_0" r="25" cx="550" cy="1050" fill="white" stroke="black" /><circle id="node_2_0" r="25" cx="100" cy="350" fill="white" stroke="black" /><circle id="node_66_0" r="25" cx="700" cy="1250" fill="white" stroke="black" /><circle id="node_34_0" r="25" cx="400" cy="800" fill="white" stroke="black" /><circle id="node_18_0" r="25" cx="700" cy="350" fill="white" stroke="black" /><circle id="node_50_0" r="25" cx="100" cy="1250" fill="white" stroke="black" /><circle id="node_10_0" r="25" cx="400" cy="350" fill="white" stroke="black" /><circle id="node_42_0" r="25" cx="700" cy="800" fill="white" stroke="black" /><circle id="node_26_0" r="25" cx="100" cy="800" fill="white" stroke="black" /><circle id="node_58_0" r="25" cx="400" cy="1250" fill="white" stroke="black" /><circle id="node_6_0" r="25" cx="250" cy="350" fill="white" stroke="black" /><circle id="node_70_0" r="25" cx="850" cy="1250" fill="white" stroke="black" /><circle id="node_38_0" r="25" cx="550" cy="800" fill="white" stroke="black" /><circle id="node_22_0" r="25" cx="850" cy="350" fill="white" stroke="black" /><circle id="node_54_0" r="25" cx="250" cy="1250" fill="white" stroke="black" /><circle id="node_14_0" r="25" cx="550" cy="350" fill="white" stroke="black" /><circle id="node_46_0" r="25" cx="850" cy="800" fill="white" stroke="black" /><circle id="node_30_0" r="25" cx="250" cy="800" fill="white" stroke="black" /><circle id="node_62_0" r="25" cx="550" cy="1250" fill="white" stroke="black" /><circle id="node_1_0" r="25" cx="100" cy="250" fill="white" stroke="black" /><circle id="node_65_0" r="25" cx="700" cy="1150" fill="white" stroke="black" /><circle id="node_33_0" r="25" cx="400" cy="700" fill="white" stroke="black" /><circle id="node_17_0" r="25" cx="700" cy="250" fill="white" stroke="black" /><circle id="node_49_0" r="25" cx="100" cy="1150" fill="white" stroke="black" /><circle id="node_9_0" r="25" cx="400" cy="250" fill="white" stroke="black" /><circle id="node_41_0" r="25" cx="700" cy="700" fill="white" stroke="black" /><circle id="node_25_0" r="25" cx="100" cy="700" fill="white" stroke="black" /><circle id="node_57_0" r="25" cx="400" cy="1150" fill="white" stroke="black" /><circle id="node_5_0" r="25" cx="250" cy="250" fill="white" stroke="black" /><circle id="node_69_0" r="25" cx="850" cy="1150" fill="white" stroke="black" /><circle id="node_37_0" r="25" cx="550" cy="700" fill="white" stroke="black" /><circle id="node_21_0" r="25" cx="850" cy="250" fill="white" stroke="black" /><circle id="node_53_0" r="25" cx="250" cy="1150" fill="white" stroke="black" /><circle id="node_13_0" r="25" cx="550" cy="250" fill="white" stroke="black" /><circle id="node_45_0" r="25" cx="850" cy="700" fill="white" stroke="black" /><circle id="node_29_0" r="25" cx="250" cy="700" fill="white" stroke="black" /><circle id="node_61_0" r="25" cx="550" cy="1150" fill="white" stroke="black" /><circle id="node_3_0" r="25" cx="100" cy="450" fill="white" stroke="black" /><circle id="node_67_0" r="25" cx="700" cy="1350" fill="white" stroke="black" /><circle id="node_35_0" r="25" cx="400" cy="900" fill="white" stroke="black" /><circle id="node_19_0" r="25" cx="700" cy="450" fill="white" stroke="black" /><circle id="node_51_0" r="25" cx="100" cy="1350" fill="white" stroke="black" /><circle id="node_11_0" r="25" cx="400" cy="450" fill="white" stroke="black" /><circle id="node_43_0" r="25" cx="700" cy="900" fill="white" stroke="black" /><circle id="node_27_0" r="25" cx="100" cy="900" fill="white" stroke="black" /><circle id="node_59_0" r="25" cx="400" cy="1350" fill="white" stroke="black" /><circle id="node_7_0" r="25" cx="250" cy="450" fill="white" stroke="black" /><circle id="node_71_0" r="25" cx="850" cy="1350" fill="white" stroke="black" /><circle id="node_39_0" r="25" cx="550" cy="900" fill="white" stroke="black" /><circle id="node_23_0" r="25" cx="850" cy="450" fill="white" stroke="black" /><circle id="node_55_0" r="25" cx="250" cy="1350" fill="white" stroke="black" /><circle id="node_15_0" r="25" cx="550" cy="450" fill="white" stroke="black" /><circle id="node_47_0" r="25" cx="850" cy="900" fill="white" stroke="black" /><circle id="node_31_0" r="25" cx="250" cy="900" fill="white" stroke="black" /><circle id="node_63_0" r="25" cx="550" cy="1350" fill="white" stroke="black" /><text x="25" y="65" font-size="30">Iteration 44: Final iteration. Distinct overlaps: 0; Total overlaps: 0
</text><polyline points="100,150 250,350 " fill="none" stroke="red" stroke-width="3"/><polyline points="100,150 250,450 " fill="none" stroke="red" stroke-width="3"/><polyline points="400,600 550,900 " fill="none" stroke="red" stroke-width="3"/><polyline points="100,1050 250,1050 " fill="none" stroke="red" stroke-width="3"/><polyline points="100,1050 250,1150 " fill="none" stroke="red" stroke-width="3"/><polyline points="400,150 350,375 400,600 " fill="none" stroke="red" stroke-width="3"/><polyline points="400,150 550,350 " fill="none" stroke="red" stroke-width="3"/><polyline points="100,600 250,700 " fill="none" stroke="red" stroke-width="3"/><polyline points="100,600 250,900 " fill="none" stroke="red" stroke-width="3"/><polyline points="400,1050 550,1050 " fill="none" stroke="red" stroke-width="3"/><polyline points="400,1050 550,1150 " fill="none" stroke="red" stroke-width="3"/><polyline points="100,350 250,350 " fill="none" stroke="red" stroke-width="3"/><polyline points="100,350 250,450 " fill="none" stroke="red" stroke-width="3"/><polyline points="100,1250 250,1150 " fill="none" stroke="red" stroke-width="3"/><polyline points="100,800 50,1025 100,1250 " fill="none" stroke="red" stroke-width="3"/><polyline points="100,800 250,800 " fill="none" stroke="red" stroke-width="3"/><polyline points="100,800 250,900 " fill="none" stroke="red" stroke-width="3"/><polyline points="250,800 400,850 550,800 " fill="none" stroke="red" stroke-width="3"/><polyline points="700,1150 850,1050 " fill="none" stroke="red" stroke-width="3"/><polyline points="400,700 550,800 " fill="none" stroke="red" stroke-width="3"/><polyline points="400,700 550,700 " fill="none" stroke="red" stroke-width="3"/><polyline points="400,700 550,900 " fill="none" stroke="red" stroke-width="3"/><polyline points="400,250 550,450 " fill="none" stroke="red" stroke-width="3"/><polyline points="700,700 850,900 " fill="none" stroke="red" stroke-width="3"/><polyline points="400,1150 550,1050 " fill="none" stroke="red" stroke-width="3"/><polyline points="400,1150 550,1150 " fill="none" stroke="red" stroke-width="3"/><polyline points="250,700 400,750 550,700 " fill="none" stroke="red" stroke-width="3"/><polyline points="100,450 250,350 " fill="none" stroke="red" stroke-width="3"/><polyline points="100,450 250,450 " fill="none" stroke="red" stroke-width="3"/><polyline points="400,900 550,800 " fill="none" stroke="red" stroke-width="3"/><polyline points="400,900 550,700 " fill="none" stroke="red" stroke-width="3"/><polyline points="100,1350 250,1050 " fill="none" stroke="red" stroke-width="3"/><polyline points="100,900 250,800 " fill="none" stroke="red" stroke-width="3"/><polyline points="100,900 250,700 " fill="none" stroke="red" stroke-width="3"/><polyline points="100,900 250,900 " fill="none" stroke="red" stroke-width="3"/><polyline points="400,1350 550,1050 " fill="none" stroke="red" stroke-width="3"/><polyline points="400,1350 550,1150 " fill="none" stroke="red" stroke-width="3"/><polyline points="100,350 50,575 100,800 " fill="none" stroke="Cyan" stroke-width="6"/><polyline points="100,800 250,700 " fill="none" stroke="Cyan" stroke-width="6"/><polyline points="400,150 550,450 " fill="none" stroke="yellow" stroke-width="6"/><polyline points="550,450 700,500 850,450 " fill="none" stroke="yellow" stroke-width="6"/><polyline points="250,450 400,500 550,450 " fill="none" stroke="yellow" stroke-width="6"/><polyline points="700,250 850,450 " fill="none" stroke="yellow" stroke-width="6"/><polyline points="700,250 650,475 700,700 " fill="none" stroke="yellow" stroke-width="6"/><polyline points="700,700 650,925 700,1150 " fill="none" stroke="yellow" stroke-width="6"/><polyline points="250,1150 400,1200 550,1150 " fill="none" stroke="green" stroke-width="6"/><polyline points="100,1350 250,1150 " fill="none" stroke="green" stroke-width="6"/><polyline points="100,900 50,1125 100,1350 " fill="none" stroke="green" stroke-width="6"/><polyline points="100,450 50,675 100,900 " fill="none" stroke="green" stroke-width="6"/><polyline points="550,900 700,950 850,900 " fill="none" stroke="Navy" stroke-width="6"/><polyline points="250,900 400,950 550,900 " fill="none" stroke="Navy" stroke-width="6"/><polyline points="400,900 550,900 " fill="none" stroke="Navy" stroke-width="6"/><polyline points="400,900 350,1125 400,1350 " fill="none" stroke="Navy" stroke-width="6"/><polyline points="400,600 550,700 " fill="none" stroke="purple" stroke-width="6"/><polyline points="400,600 550,800 " fill="none" stroke="purple" stroke-width="6"/><polyline points="400,600 350,825 400,1050 " fill="none" stroke="purple" stroke-width="6"/><polyline points="400,700 350,925 400,1150 " fill="none" stroke="magenta" stroke-width="6"/><polyline points="400,250 350,475 400,700 " fill="none" stroke="magenta" stroke-width="6"/><polyline points="400,250 550,350 " fill="none" stroke="magenta" stroke-width="6"/><polyline points="250,350 400,400 550,350 " fill="none" stroke="magenta" stroke-width="6"/><polyline points="550,1050 700,1100 850,1050 " fill="none" stroke="blue" stroke-width="6"/><polyline points="100,1250 250,1050 " fill="none" stroke="blue" stroke-width="6"/><polyline points="250,1050 400,1100 550,1050 " fill="none" stroke="blue" stroke-width="6"/><polyline points="100,600 50,825 100,1050 " fill="none" stroke="Aquamarine" stroke-width="6"/><polyline points="100,150 50,375 100,600 " fill="none" stroke="Aquamarine" stroke-width="6"/><polyline points="100,600 250,800 " fill="none" stroke="Aquamarine" stroke-width="6"/><circle id="node_2_3" r="25" cx="100" cy="350" fill="Cyan" stroke="black" /><circle id="node_26_3" r="25" cx="100" cy="800" fill="Cyan" stroke="black" /><circle id="node_29_3" r="25" cx="250" cy="700" fill="Cyan" stroke="black" /><circle id="node_8_3" r="25" cx="400" cy="150" fill="yellow" stroke="black" /><circle id="node_15_3" r="25" cx="550" cy="450" fill="yellow" stroke="black" /><circle id="node_23_3" r="25" cx="850" cy="450" fill="yellow" stroke="black" /><circle id="node_7_3" r="25" cx="250" cy="450" fill="yellow" stroke="black" /><circle id="node_41_3" r="25" cx="700" cy="700" fill="yellow" stroke="black" /><circle id="node_17_3" r="25" cx="700" cy="250" fill="yellow" stroke="black" /><circle id="node_65_3" r="25" cx="700" cy="1150" fill="yellow" stroke="black" /><circle id="node_61_3" r="25" cx="550" cy="1150" fill="green" stroke="black" /><circle id="node_53_3" r="25" cx="250" cy="1150" fill="green" stroke="black" /><circle id="node_27_3" r="25" cx="100" cy="900" fill="green" stroke="black" /><circle id="node_51_3" r="25" cx="100" cy="1350" fill="green" stroke="black" /><circle id="node_3_3" r="25" cx="100" cy="450" fill="green" stroke="black" /><circle id="node_47_3" r="25" cx="850" cy="900" fill="Navy" stroke="black" /><circle id="node_31_3" r="25" cx="250" cy="900" fill="Navy" stroke="black" /><circle id="node_39_3" r="25" cx="550" cy="900" fill="Navy" stroke="black" /><circle id="node_59_3" r="25" cx="400" cy="1350" fill="Navy" stroke="black" /><circle id="node_35_3" r="25" cx="400" cy="900" fill="Navy" stroke="black" /><circle id="node_37_3" r="25" cx="550" cy="700" fill="purple" stroke="black" /><circle id="node_38_3" r="25" cx="550" cy="800" fill="purple" stroke="black" /><circle id="node_56_3" r="25" cx="400" cy="1050" fill="purple" stroke="black" /><circle id="node_32_3" r="25" cx="400" cy="600" fill="purple" stroke="black" /><circle id="node_57_3" r="25" cx="400" cy="1150" fill="magenta" stroke="black" /><circle id="node_9_3" r="25" cx="400" cy="250" fill="magenta" stroke="black" /><circle id="node_33_3" r="25" cx="400" cy="700" fill="magenta" stroke="black" /><circle id="node_14_3" r="25" cx="550" cy="350" fill="magenta" stroke="black" /><circle id="node_6_3" r="25" cx="250" cy="350" fill="magenta" stroke="black" /><circle id="node_68_3" r="25" cx="850" cy="1050" fill="blue" stroke="black" /><circle id="node_50_3" r="25" cx="100" cy="1250" fill="blue" stroke="black" /><circle id="node_60_3" r="25" cx="550" cy="1050" fill="blue" stroke="black" /><circle id="node_52_3" r="25" cx="250" cy="1050" fill="blue" stroke="black" /><circle id="node_48_3" r="25" cx="100" cy="1050" fill="Aquamarine" stroke="black" /><circle id="node_0_3" r="25" cx="100" cy="150" fill="Aquamarine" stroke="black" /><circle id="node_24_3" r="25" cx="100" cy="600" fill="Aquamarine" stroke="black" /><circle id="node_30_3" r="25" cx="250" cy="800" fill="Aquamarine" stroke="black" /></svg>